<svg width="1009" height="438" viewBox="0 0 1009 438" fill="none" xmlns="http://www.w3.org/2000/svg">
<path d="M194.762 233.774V295.983H172.769V221.333L194.762 233.774ZM304.736 155.29H304.737V208.891L282.743 221.333V159.125H238.753V295.983H216.756V159.125H172.767V221.333L150.774 208.891V159.125H150.771V142.017H304.736V155.29ZM260.747 233.774V295.983H282.741V221.333L260.747 233.774Z" fill="black"/>
<path d="M378.427 157.589H355.839V178.352H378.427V157.589Z" fill="black"/>
<path d="M397.487 178.351H378.443V196.205H397.487V178.351Z" fill="black"/>
<path d="M378.427 178.351H355.839V196.205H378.427V178.351Z" fill="black"/>
<path fill-rule="evenodd" clip-rule="evenodd" d="M378.442 196.205V245.635C378.442 248.978 379.131 251.323 380.474 252.67C381.889 254.018 384.392 254.695 388.02 254.695C389.363 254.695 390.959 254.663 392.773 254.605C394.623 254.547 396.111 254.518 397.308 254.518L398.106 272.282C396.329 272.459 394.188 272.578 391.648 272.635C389.109 272.693 386.605 272.722 384.21 272.722C374.632 272.722 367.521 270.729 362.841 266.742C358.197 262.696 355.839 256.629 355.839 248.538V196.205H378.442Z" fill="black"/>
<path fill-rule="evenodd" clip-rule="evenodd" d="M420.889 231.297C421.071 236.153 422.014 240.433 423.792 244.14C425.751 248.243 428.545 251.41 432.21 253.64C435.874 255.866 440.263 256.979 445.379 256.979C449.044 256.979 452.309 256.453 455.139 255.398C458.041 254.284 460.472 252.728 462.395 250.736C464.354 248.744 465.77 246.428 466.677 243.787L487.647 244.756C486.341 250.617 483.729 255.808 479.774 260.322C475.819 264.778 470.848 268.266 464.898 270.787C458.912 273.309 452.273 274.57 444.944 274.57C435.511 274.57 427.311 272.488 420.346 268.327C413.416 264.162 408.082 258.416 404.309 251.089C400.572 243.7 398.722 235.227 398.722 225.67C398.722 216.055 400.645 207.553 404.491 200.164C408.3 192.776 413.634 186.972 420.418 182.75C427.203 178.528 435.039 176.417 443.892 176.417C450.495 176.417 456.518 177.559 461.96 179.846C467.438 182.076 472.227 185.329 476.218 189.609C480.245 193.831 483.329 198.932 485.543 204.912C487.756 210.893 488.881 217.608 488.881 225.054V231.297H420.889ZM421.071 215.994H467.257C466.858 212.413 465.987 209.217 464.608 206.407C462.794 202.481 460.146 199.462 456.663 197.351C453.18 195.179 449.007 194.094 444.146 194.094C439.393 194.094 435.257 195.179 431.738 197.351C428.291 199.52 425.606 202.538 423.683 206.407C422.304 209.232 421.434 212.431 421.071 215.994Z" fill="black"/>
<path fill-rule="evenodd" clip-rule="evenodd" d="M538.95 274.57C529.735 274.57 521.644 272.52 514.678 268.413C507.749 264.253 502.379 258.507 498.533 251.175C494.687 243.787 492.801 235.256 492.801 225.583C492.801 215.907 494.687 207.377 498.533 199.988C502.379 192.599 507.749 186.824 514.678 182.66C521.644 178.499 529.735 176.417 538.95 176.417C544.719 176.417 550.052 177.267 554.95 178.967C559.885 180.61 564.166 182.955 567.902 186.003C571.676 189.054 574.723 192.689 577.009 196.911C579.331 201.072 580.818 205.705 581.435 210.806L559.558 211.775C559.159 209.253 558.397 206.966 557.272 204.912C556.148 202.863 554.696 201.101 552.918 199.635C551.213 198.169 549.218 197.027 546.896 196.205C544.61 195.384 542.034 194.973 539.204 194.973C534.161 194.973 529.916 196.266 526.361 198.846C522.878 201.368 520.229 204.912 518.379 209.488C516.565 214.059 515.622 219.427 515.622 225.583C515.622 231.679 516.565 237.014 518.379 241.589C520.229 246.161 522.878 249.709 526.361 252.231C529.916 254.753 534.161 256.014 539.204 256.014C542.107 256.014 544.647 255.632 546.896 254.868C549.218 254.05 551.177 252.905 552.846 251.438C554.551 249.915 555.93 248.099 556.982 245.988C558.143 243.877 558.941 241.532 559.485 238.949L581.435 239.918C580.927 245.019 579.513 249.68 577.191 253.903C574.905 258.063 571.857 261.702 568.084 264.807C564.347 267.916 560.03 270.319 555.059 272.019C550.089 273.72 544.719 274.57 538.95 274.57Z" fill="black"/>
<path fill-rule="evenodd" clip-rule="evenodd" d="M626.206 250.812C627.113 253.971 628.02 257.141 628.927 260.322H623.521C624.428 257.141 625.299 253.971 626.206 250.812Z" fill="black"/>
<path d="M700.93 178.351H678.341V272.459H700.93V178.351Z" fill="black"/>
<path d="M784.825 178.613H762.312L787.764 248.614H810.277L784.825 178.613Z" fill="black"/>
<path d="M600.406 178.61H577.902L612.008 272.453H634.511L600.406 178.61Z" fill="black"/>
<path d="M651.316 178.61H673.82L639.714 272.453H617.211L651.316 178.61Z" fill="black"/>
<path d="M835.732 178.611H858.229L816.918 292.315H794.421L835.732 178.611Z" fill="black"/>
<path d="M755.256 178.351H736.212V196.205H755.256V178.351Z" fill="black"/>
<path fill-rule="evenodd" clip-rule="evenodd" d="M736.213 196.205V245.635C736.213 248.978 736.903 251.323 738.245 252.67C739.66 254.018 742.164 254.695 745.792 254.695C747.134 254.695 748.73 254.663 750.581 254.605C752.395 254.547 753.882 254.518 755.079 254.518L755.877 272.282C754.1 272.459 751.959 272.578 749.42 272.635C746.88 272.693 744.377 272.722 741.982 272.722C732.404 272.722 725.293 270.729 720.612 266.742C715.968 262.696 713.61 256.629 713.61 248.538V196.205H736.213Z" fill="black"/>
<path d="M736.199 157.589H713.61V178.352H736.199V157.589Z" fill="black"/>
<path d="M700.96 145.127H678.371V165.89H700.96V145.127Z" fill="black"/>
<path d="M736.199 178.351H713.61V196.205H736.199V178.351Z" fill="black"/>
</svg>
